<?xml version="1.0" encoding="UTF-8"?>
<svg id="Layer_1" xmlns="http://www.w3.org/2000/svg" version="1.1" xmlns:xlink="http://www.w3.org/1999/xlink" viewBox="0 0 500 156.52">
  <!-- Generator: Adobe Illustrator 30.0.0, SVG Export Plug-In . SVG Version: 2.1.1 Build 123)  -->
  <defs>
    <style>
      .st0 {
        fill: #caa84b;
      }

      .st1 {
        stroke: #caa84b;
        stroke-miterlimit: 2.45;
        stroke-width: .86px;
      }

      .st1, .st2 {
        fill: none;
      }

      .st3 {
        fill: #fff;
      }

      .st4 {
        fill: #3a8a7a;
      }

      .st5 {
        fill: #b9943e;
      }

      .st6 {
        clip-path: url(#clippath);
      }
    </style>
    <clipPath id="clippath">
      <rect class="st2" x="78.74" y="39.07" width="5.59" height="5.75"/>
    </clipPath>
  </defs>
  <path class="st5" d="M184.81,52.43c3.51,3.53,6.2,7.55,8.07,12.05,1.87,4.5,2.8,9.22,2.8,14.17s-.93,9.7-2.8,14.19c-1.87,4.49-4.56,8.52-8.07,12.07-3.53,3.51-7.55,6.2-12.05,8.07-4.5,1.86-9.23,2.8-14.18,2.8h-3.41l-30.53-.05c.86,0,1.6-.13,2.23-.38,1.22-.52,2.11-1.28,2.67-2.29.57-1.01.93-1.99,1.09-2.96.16-.97.24-1.65.24-2.05v-58.8c0-.31-.05-.84-.16-1.61-.12-1.01-.47-2.06-1.03-3.16-.56-1.1-1.5-1.93-2.81-2.49-.63-.27-1.37-.41-2.23-.41l33.95-.03c4.95,0,9.67.93,14.18,2.8,4.5,1.86,8.52,4.55,12.05,8.07ZM152.91,114.7h2.4c1.7-.12,3.2-.34,4.51-.64,1.3-.31,2.66-.8,4.07-1.48,3.94-2.04,7.39-4.7,10.34-7.97,2.95-3.27,5.25-7,6.91-11.18,1.66-4.18,2.49-8.62,2.49-13.31v-3.04c0-4.91-.9-9.53-2.69-13.84-1.79-4.31-4.28-8.13-7.45-11.45-3.17-3.32-6.86-5.95-11.06-7.91-1.36-.52-2.72-.86-4.07-1.01-1.36-.15-2.36-.23-3.03-.23h-11.14c-.83.66-1.44,1.45-1.84,2.35-.4.91-.66,1.76-.78,2.57-.12.81-.17,1.37-.15,1.69v58.8c-.02.32.03.87.13,1.64.12.81.38,1.67.78,2.6.4.92,1.02,1.73,1.88,2.41h8.69Z"/>
  <path class="st5" d="M195.22,115.73c1.16,0,2.12-.22,2.88-.66.75-.44,1.35-1,1.8-1.67.45-.67.78-1.37,1.01-2.1.22-.73.37-1.38.43-1.97.06-.58.09-1.01.09-1.28v-26.42c0-1.01-.08-1.83-.24-2.47-.16-.65-.37-1.15-.62-1.51-.25-.36-.52-.62-.81-.78s-.56-.26-.82-.28c-.26-.03-.48-.02-.65.02-.17.04-.26.05-.28.05l13.96-7.94v39.32c0,.27.04.7.11,1.28.07.58.21,1.23.43,1.95.21.71.55,1.42,1,2.1.45.68,1.05,1.24,1.82,1.68.76.44,1.73.66,2.89.66h-23ZM206.71,62.47c-1.44,0-2.66-.5-3.69-1.52-1.02-1.01-1.53-2.25-1.53-3.7s.51-2.66,1.53-3.69c1.02-1.02,2.25-1.53,3.69-1.53s2.69.51,3.71,1.53c1.02,1.02,1.53,2.25,1.53,3.69s-.51,2.68-1.53,3.7c-1.02,1.01-2.26,1.52-3.71,1.52Z"/>
  <path class="st3" d="M270.82,43.18c6.06,2.76,10.92,6.59,14.57,11.49,3.65,4.89,6,10.31,7.04,16.23,1.04,5.93.68,11.81-1.08,17.66-1.76,5.85-5.01,11.1-9.76,15.77-4.05,3.89-8.77,6.73-14.15,8.53,1.42.75,2.79,1.54,4.12,2.37.09.04.17.08.24.13,1.51.95,3.03,1.79,4.56,2.53,1.53.73,2.81.93,3.82.6,1.01-.33,1.5-1.6,1.47-3.81.04-1.77.56-3.12,1.56-4.03,1.01-.92,2.18-1.39,3.52-1.43,1.35-.04,2.55.38,3.61,1.24,1.06.86,1.65,2.18,1.77,3.95-.02,1.11-.34,2.11-.97,3-.63.89-1.46,1.53-2.5,1.92-2.26,1.02-4.39,1.45-6.4,1.29-2.01-.16-3.95-.69-5.84-1.57-1.88-.89-3.75-1.9-5.6-3.02-1.6-.97-3.22-1.87-4.87-2.69-6.1,1.7-12.02,1.94-17.77.7-5.75-1.24-10.91-3.64-15.48-7.21-4.57-3.57-8.16-7.99-10.77-13.26-2.61-5.27-3.83-11.08-3.67-17.43.29-6.63,2.01-12.56,5.18-17.78,3.17-5.22,7.3-9.43,12.4-12.63,5.1-3.2,10.69-5.09,16.76-5.66,6.07-.57,12.15.47,18.25,3.12ZM268.67,111.26c3.26-1.26,5.97-3.28,8.12-6.07,2.15-2.79,3.75-6.21,4.79-10.26,1.13-4.32,1.4-8.97.82-13.93-.58-4.96-1.89-9.85-3.93-14.66-2.04-4.81-4.68-9.13-7.95-12.95-3.26-3.83-7.01-6.75-11.23-8.78-4.22-2.03-8.81-2.73-13.76-2.12-2.04.59-4.03,1.36-5.97,2.31-4.9,3.03-8.23,8.01-10.01,14.95-1.15,4.61-1.4,9.47-.76,14.58.65,5.11,2.05,10.08,4.22,14.91,2.17,4.83,4.98,9.13,8.42,12.9,3.44,3.76,7.38,6.61,11.81,8.53,4.36-.79,8.57-.3,12.64,1.45.95-.19,1.87-.48,2.77-.86ZM255.41,111.48c2.85.9,5.64,1.22,8.37.97-2.72-.9-5.51-1.22-8.37-.97Z"/>
  <path class="st3" d="M342.59,108.84c.09.59.26,1.23.5,1.91.24.68.59,1.33,1.05,1.94.46.61,1.05,1.11,1.79,1.51.74.39,1.64.59,2.72.59h-9.71c-1.61,0-3.05-.48-4.3-1.45-.85-.66-1.51-1.48-2.01-2.45-.49-.97-.74-2.02-.74-3.15v-7.42c-.75,1.4-1.57,2.77-2.45,4.12-2.65,3.91-5.69,6.75-9.12,8.5-3.05,1.51-6.13,2.1-9.23,1.78-1.13-.13-2.2-.38-3.23-.75-2.08-.83-3.77-2.07-5.08-3.74-1.31-1.67-2.05-3.52-2.23-5.54v-23.89c0-1.01-.08-1.83-.24-2.48-.16-.64-.37-1.15-.62-1.51-.25-.36-.52-.62-.81-.78-.28-.16-.56-.26-.82-.28-.26-.03-.48-.03-.64,0-.17.03-.26.05-.28.07l13.96-7.96v35.94c0,.56.07,1.41.21,2.56s.47,2.31.97,3.48c.5,1.17,1.26,2.06,2.28,2.65,1.02.59,2.41.59,4.17,0v.03-.03c.38-.14.74-.31,1.1-.48,3.26-1.67,6.17-4.39,8.71-8.18,1.24-1.88,2.35-3.84,3.34-5.89v-17.13c-.02-1.01-.11-1.83-.27-2.48-.16-.64-.37-1.15-.62-1.51-.25-.36-.52-.62-.81-.78-.28-.16-.56-.26-.8-.28-.25-.03-.46-.03-.63,0-.17.03-.26.05-.28.07l13.93-7.94.03-.03v39.27c0,.34.05.92.16,1.72Z"/>
  <path class="st3" d="M383.97,108.37c.06.58.2,1.24.43,1.97.22.72.55,1.43,1.01,2.1.45.67,1.05,1.23,1.81,1.68.77.45,1.72.67,2.88.67h-6.23l-3.5-.03c-1.53,0-2.88-.43-4.07-1.29s-2.04-1.97-2.54-3.33c-.05.02-.11.04-.16.08-.09.05-.18.11-.27.16-1.31.74-2.65,1.43-4.01,2.07-1.27.61-2.58,1.12-3.93,1.53-.77.23-1.62.43-2.56.61-.93.17-1.91.26-2.93.26-.9,0-1.81-.09-2.74-.26-.93-.17-1.87-.46-2.8-.87-1.81-.81-3.34-2.02-4.57-3.63-1.27-1.7-1.99-3.55-2.15-5.54-.18-3.78,1.33-7.19,4.52-10.22,1.4-1.23,2.9-2.27,4.49-3.09,1.6-.83,3.21-1.58,4.84-2.26l6.56-2.82,5.27-2.31v-3.93c0-1.02-.11-2.19-.32-3.51-.21-1.32-.61-2.58-1.18-3.78-.57-1.2-1.4-2.16-2.47-2.88-1.08-.72-2.46-1.01-4.14-.89-.32.04-.63.09-.94.16-.11.02-.21.04-.32.08-1.06.39-1.83,1.13-2.31,2.22s-.78,2.23-.89,3.43c-.11,1.2-.14,2.17-.11,2.91.04.19.05.39.05.59v.21c-.09,1.15-.54,2.11-1.35,2.88-.8.77-1.78,1.16-2.93,1.16s-2.16-.42-3-1.25c-.83-.83-1.25-1.83-1.25-3,0-.56.09-1.08.27-1.56.07-.16.14-.31.21-.46.04-.07.07-.13.11-.16,1.38-2.55,3.37-4.59,5.97-6.13,2.6-1.54,5.51-2.31,8.74-2.31,2.06,0,4.02.33,5.86,1,3.14,1.13,5.68,2.95,7.63,5.47,1.94,2.52,2.92,5.39,2.92,8.6v24.45c0,.25.03.67.09,1.25ZM369.14,111.34c.5-.23,1.08-.53,1.75-.89.66-.36,1.25-.68,1.75-.96.5-.28.78-.42.83-.44-.09-.43-.13-.88-.13-1.34v-22.7l-6.29,2.72c-1.26.72-2.49,1.7-3.69,2.96-1.2,1.26-2.17,2.86-2.91,4.8-.73,1.95-1.03,4.31-.89,7.09.2,2.36.71,4.19,1.53,5.46.83,1.27,1.78,2.15,2.85,2.64,1.08.48,2.09.74,3.05.78.96.04,1.67,0,2.14-.11Z"/>
  <path class="st3" d="M397.67,51.09c-.16-.65-.36-1.15-.62-1.51-.25-.36-.52-.62-.79-.78-.28-.16-.55-.26-.81-.28-.26-.03-.47-.03-.64,0-.17.03-.26.05-.28.07l13.96-7.96v66.28c.12,1.06.29,1.98.51,2.76.22.78.55,1.56,1.01,2.33.46.77,1.07,1.43,1.83,1.97.76.54,1.72.81,2.86.81h-23c1.17,0,2.13-.23,2.9-.67.76-.45,1.37-1.01,1.81-1.68.45-.67.78-1.37,1-2.08.22-.72.36-1.37.43-1.95.07-.58.1-1.01.1-1.28v-53.53c-.01-1-.1-1.83-.27-2.47Z"/>
  <path class="st3" d="M416.31,114.76c1.17,0,2.12-.22,2.88-.66.76-.44,1.36-1,1.81-1.67.45-.67.78-1.37,1.01-2.1.22-.73.37-1.38.43-1.97.06-.58.1-1.01.1-1.28v-26.42c0-1.01-.08-1.83-.24-2.47-.16-.65-.36-1.15-.62-1.51-.25-.36-.52-.62-.8-.78-.29-.16-.56-.26-.82-.28-.26-.03-.47-.02-.64.02-.17.04-.26.05-.28.05l13.96-7.94v39.32c0,.27.03.7.1,1.28.08.58.22,1.23.43,1.95.22.71.55,1.42,1,2.1.45.68,1.05,1.24,1.81,1.68.77.44,1.73.66,2.89.66h-23ZM427.8,61.5c-1.43,0-2.66-.5-3.68-1.52s-1.53-2.25-1.53-3.7.51-2.66,1.53-3.69c1.02-1.02,2.25-1.53,3.68-1.53s2.69.51,3.71,1.53c1.02,1.02,1.53,2.25,1.53,3.69s-.51,2.68-1.53,3.7-2.26,1.52-3.71,1.52Z"/>
  <path class="st3" d="M474.64,108.37c.06.58.21,1.24.43,1.97.22.72.56,1.43,1.01,2.1.45.67,1.05,1.23,1.81,1.68.77.45,1.73.67,2.89.67h-6.23l-3.5-.03c-1.53,0-2.88-.43-4.08-1.29-1.19-.86-2.04-1.97-2.54-3.33-.06.02-.11.04-.17.08-.09.05-.18.11-.27.16-1.31.74-2.64,1.43-4.01,2.07-1.28.61-2.58,1.12-3.92,1.53-.77.23-1.63.43-2.56.61-.93.17-1.91.26-2.93.26-.9,0-1.81-.09-2.74-.26-.93-.17-1.87-.46-2.8-.87-1.81-.81-3.33-2.02-4.57-3.63-1.28-1.7-1.99-3.55-2.15-5.54-.18-3.78,1.33-7.19,4.52-10.22,1.4-1.23,2.9-2.27,4.49-3.09,1.6-.83,3.21-1.58,4.84-2.26l6.57-2.82,5.27-2.31v-3.93c0-1.02-.11-2.19-.32-3.51-.22-1.32-.61-2.58-1.19-3.78-.57-1.2-1.4-2.16-2.48-2.88-1.07-.72-2.46-1.01-4.14-.89-.32.04-.64.09-.94.16-.11.02-.22.04-.33.08-1.06.39-1.83,1.13-2.31,2.22-.48,1.08-.78,2.23-.89,3.43-.1,1.2-.14,2.17-.1,2.91.03.19.05.39.05.59v.21c-.09,1.15-.54,2.11-1.35,2.88-.8.77-1.78,1.16-2.93,1.16s-2.17-.42-3-1.25c-.84-.83-1.25-1.83-1.25-3,0-.56.09-1.08.27-1.56.07-.16.14-.31.22-.46.03-.07.07-.13.1-.16,1.38-2.55,3.38-4.59,5.97-6.13,2.6-1.54,5.51-2.31,8.74-2.31,2.06,0,4.02.33,5.86,1,3.14,1.13,5.68,2.95,7.63,5.47,1.95,2.52,2.92,5.39,2.92,8.6v24.45c0,.25.03.67.09,1.25ZM459.81,111.34c.5-.23,1.08-.53,1.75-.89.66-.36,1.24-.68,1.75-.96.5-.28.78-.42.83-.44-.09-.43-.13-.88-.13-1.34v-22.7l-6.29,2.72c-1.26.72-2.48,1.7-3.69,2.96-1.2,1.26-2.17,2.86-2.9,4.8-.73,1.95-1.03,4.31-.89,7.09.2,2.36.71,4.19,1.53,5.46.82,1.27,1.77,2.15,2.85,2.64,1.08.48,2.09.74,3.05.78.96.04,1.67,0,2.14-.11Z"/>
  <g>
    <path class="st0" d="M25.58,41.68c0,.89-.31,1.64-.94,2.26s-1.37.94-2.25.94-1.64-.31-2.26-.94-.92-1.37-.92-2.26.3-1.62.92-2.25,1.37-.94,2.26-.94,1.62.31,2.25.94.94,1.37.94,2.25Z"/>
    <path class="st0" d="M43.74,41.68c0,.48-.16.89-.5,1.22-.33.34-.73.5-1.22.5s-.87-.16-1.2-.5c-.34-.33-.52-.73-.52-1.22s.17-.87.52-1.2c.33-.34.73-.52,1.2-.52s.89.17,1.22.52c.34.33.5.73.5,1.2Z"/>
    <rect class="st2" x="54.75" y="35.87" width="16" height="12"/>
    <path class="st4" d="M65.09,41.68c0,.95-.33,1.77-1,2.44-.67.67-1.48,1-2.44,1s-1.75-.33-2.42-1c-.67-.67-1.02-1.48-1.02-2.44s.34-1.75,1.02-2.42,1.47-1.02,2.42-1.02,1.77.34,2.44,1.02c.67.67,1,1.48,1,2.42Z"/>
    <g class="st6">
      <path class="st0" d="M83.49,41.68c0,.61-.22,1.14-.64,1.56-.44.44-.95.66-1.56.66s-1.12-.22-1.56-.66c-.44-.42-.64-.95-.64-1.56s.2-1.12.64-1.56c.44-.42.95-.64,1.56-.64s1.12.22,1.56.64c.42.44.64.95.64,1.56Z"/>
    </g>
    <path class="st0" d="M104.11,41.68c0,.89-.31,1.64-.94,2.26s-1.37.94-2.25.94-1.64-.31-2.26-.94-.94-1.37-.94-2.26.31-1.62.94-2.25,1.37-.94,2.26-.94,1.62.31,2.25.94.94,1.37.94,2.25Z"/>
    <path class="st0" d="M24.12,66.22c0,.48-.17.89-.52,1.22-.33.33-.73.5-1.2.5s-.89-.17-1.22-.5c-.34-.33-.5-.73-.5-1.22s.16-.87.5-1.2c.33-.34.73-.52,1.22-.52s.87.17,1.2.52c.34.33.52.73.52,1.2Z"/>
    <path class="st0" d="M45.95,66.22c0,1.09-.39,2.02-1.16,2.78-.77.77-1.69,1.16-2.78,1.16s-2-.39-2.76-1.16-1.16-1.69-1.16-2.78.39-2,1.16-2.76c.77-.78,1.69-1.16,2.76-1.16s2.02.37,2.78,1.16c.77.77,1.16,1.69,1.16,2.76Z"/>
    <path class="st0" d="M64.1,66.22c0,.69-.23,1.27-.72,1.73-.47.48-1.05.72-1.73.72s-1.25-.23-1.73-.72c-.48-.47-.72-1.05-.72-1.73s.23-1.25.72-1.73c.48-.47,1.06-.72,1.73-.72s1.27.25,1.73.72c.48.48.72,1.06.72,1.73Z"/>
    <path class="st0" d="M84.72,66.22c0,.95-.34,1.77-1.02,2.44-.67.67-1.47,1-2.42,1s-1.77-.33-2.44-1c-.67-.67-1-1.48-1-2.44s.33-1.75,1-2.42c.67-.67,1.48-1.02,2.44-1.02s1.75.34,2.42,1.02c.67.67,1.02,1.48,1.02,2.42Z"/>
    <path class="st0" d="M102.14,66.22c0,.34-.11.62-.36.87-.23.23-.53.36-.86.36s-.64-.12-.87-.36c-.23-.25-.36-.53-.36-.87s.12-.62.36-.86c.23-.25.53-.36.87-.36s.62.11.86.36c.25.23.36.53.36.86Z"/>
    <path class="st0" d="M25.58,91.26c0,.89-.31,1.64-.94,2.26-.62.61-1.37.92-2.25.92s-1.64-.31-2.26-.92c-.62-.62-.92-1.37-.92-2.26s.3-1.62.92-2.25,1.37-.94,2.26-.94,1.62.31,2.25.94.94,1.37.94,2.25Z"/>
    <path class="st0" d="M43.98,90.76c0,.55-.19,1.02-.58,1.39-.37.39-.84.58-1.39.58s-1-.19-1.37-.58c-.39-.37-.58-.84-.58-1.39s.19-1,.58-1.39c.37-.37.84-.56,1.37-.56s1.02.19,1.39.56c.39.39.58.84.58,1.39Z"/>
    <path class="st0" d="M67.54,90.76c0,.78-.14,1.53-.44,2.25-.31.73-.73,1.36-1.28,1.92-.56.55-1.19.97-1.92,1.28-.72.3-1.47.44-2.25.44s-1.53-.14-2.25-.44c-.72-.31-1.36-.73-1.91-1.28s-.98-1.19-1.28-1.92c-.3-.72-.45-1.47-.45-2.25s.16-1.53.45-2.25.72-1.36,1.28-1.91c.55-.56,1.19-.98,1.91-1.28s1.47-.45,2.25-.45,1.53.16,2.25.45c.73.3,1.36.72,1.92,1.28s.97,1.19,1.28,1.91c.3.72.44,1.47.44,2.25Z"/>
    <path class="st1" d="M71.96,90.76c0,1.37-.27,2.69-.78,3.95-.53,1.27-1.27,2.37-2.23,3.34s-2.08,1.7-3.34,2.23c-1.27.52-2.58.78-3.95.78s-2.67-.27-3.94-.78c-1.27-.53-2.37-1.27-3.34-2.23-.97-.97-1.72-2.08-2.23-3.34-.53-1.27-.8-2.58-.8-3.95s.27-2.67.8-3.94c.52-1.27,1.27-2.37,2.23-3.34.97-.97,2.08-1.72,3.34-2.23,1.27-.53,2.58-.8,3.94-.8s2.69.27,3.95.8c1.27.52,2.37,1.27,3.34,2.23s1.7,2.08,2.23,3.34c.52,1.27.78,2.58.78,3.94Z"/>
    <path class="st4" d="M63.98,90.76c0,.64-.22,1.2-.67,1.66s-1.02.67-1.66.67-1.19-.22-1.64-.67-.69-1.02-.69-1.66.23-1.19.69-1.64,1-.69,1.64-.69,1.2.23,1.66.69.67,1,.67,1.64Z"/>
    <path class="st0" d="M82.75,90.76c0,.41-.14.75-.42,1.05-.3.28-.64.42-1.05.42s-.75-.14-1.05-.42c-.28-.3-.42-.64-.42-1.05s.14-.75.42-1.03c.3-.3.64-.44,1.05-.44s.75.14,1.05.44c.28.28.42.62.42,1.03Z"/>
    <path class="st0" d="M104.59,90.76c0,1.02-.36,1.89-1.08,2.61-.72.72-1.58,1.08-2.59,1.08s-1.89-.36-2.61-1.08-1.08-1.59-1.08-2.61.36-1.87,1.08-2.59c.72-.72,1.59-1.08,2.61-1.08s1.87.36,2.59,1.08c.72.72,1.08,1.58,1.08,2.59Z"/>
    <path class="st0" d="M24.12,115.3c0,.47-.17.87-.52,1.22-.33.33-.73.5-1.2.5s-.89-.17-1.22-.5-.5-.75-.5-1.22.16-.87.5-1.22c.33-.33.73-.5,1.22-.5s.87.17,1.2.5c.34.34.52.75.52,1.22Z"/>
    <path class="st0" d="M45.22,115.3c0,.87-.31,1.64-.94,2.25-.62.62-1.37.94-2.26.94s-1.62-.31-2.25-.94c-.62-.61-.94-1.37-.94-2.25s.31-1.62.94-2.25,1.37-.94,2.25-.94,1.64.31,2.26.94.94,1.37.94,2.25Z"/>
    <path class="st0" d="M62.89,115.3c0,.34-.12.62-.36.87-.25.23-.53.36-.87.36s-.62-.12-.86-.36c-.25-.25-.36-.53-.36-.87s.11-.62.36-.86c.23-.25.52-.36.86-.36s.62.11.87.36c.23.23.36.52.36.86Z"/>
    <path class="st0" d="M85.46,115.3c0,.56-.11,1.09-.31,1.59-.22.52-.52.97-.91,1.36-.39.39-.84.69-1.36.91-.52.2-1.05.31-1.59.31s-1.09-.11-1.59-.31c-.52-.22-.97-.52-1.36-.91-.39-.39-.69-.84-.91-1.36-.2-.5-.31-1.03-.31-1.59s.11-1.08.31-1.59c.22-.52.52-.97.91-1.36.39-.39.84-.69,1.36-.91.5-.2,1.03-.31,1.59-.31s1.08.11,1.59.31c.52.22.97.52,1.36.91s.69.84.91,1.36c.2.52.31,1.05.31,1.59Z"/>
    <path class="st0" d="M103.12,115.3c0,.61-.22,1.12-.64,1.56-.44.44-.95.64-1.56.64s-1.14-.2-1.56-.64c-.44-.44-.66-.95-.66-1.56s.22-1.12.66-1.56c.42-.42.95-.64,1.56-.64s1.12.22,1.56.64c.42.44.64.95.64,1.56Z"/>
  </g>
</svg>